%TF.GenerationSoftware,Altium Limited,Altium Designer,25.6.2 (33)*%
G04 Layer_Color=8388736*
%FSLAX45Y45*%
%MOMM*%
%TF.SameCoordinates,97575473-8274-49C9-A5CF-5B9BE0859C80*%
%TF.FilePolarity,Negative*%
%TF.FileFunction,Soldermask,Top*%
%TF.Part,Single*%
G01*
G75*
%TA.AperFunction,SMDPad,CuDef*%
%ADD10R,0.67248X0.71535*%
%ADD11R,0.47247X0.53933*%
%TA.AperFunction,ComponentPad*%
%ADD15C,1.57000*%
%ADD16R,1.57000X1.57000*%
%ADD17C,1.85000*%
%ADD18R,1.70000X1.70000*%
%TA.AperFunction,SMDPad,CuDef*%
G04:AMPARAMS|DCode=30|XSize=0.7532mm|YSize=1.4532mm|CornerRadius=0.1511mm|HoleSize=0mm|Usage=FLASHONLY|Rotation=90.000|XOffset=0mm|YOffset=0mm|HoleType=Round|Shape=RoundedRectangle|*
%AMROUNDEDRECTD30*
21,1,0.75320,1.15100,0,0,90.0*
21,1,0.45100,1.45320,0,0,90.0*
1,1,0.30220,0.57550,0.22550*
1,1,0.30220,0.57550,-0.22550*
1,1,0.30220,-0.57550,-0.22550*
1,1,0.30220,-0.57550,0.22550*
%
%ADD30ROUNDEDRECTD30*%
%TA.AperFunction,ViaPad*%
%ADD31C,0.70320*%
%ADD32C,1.47320*%
D10*
X2247900Y2216613D02*
D03*
Y2120900D02*
D03*
D11*
X1257300Y2209800D02*
D03*
Y2283115D02*
D03*
X1778000Y2260600D02*
D03*
Y2187285D02*
D03*
D15*
X2463800Y609600D02*
D03*
X889000Y673100D02*
D03*
D16*
X2209800Y609600D02*
D03*
X635000Y673100D02*
D03*
D17*
X2752900Y3921300D02*
D03*
X1742900Y2911300D02*
D03*
X2752900D02*
D03*
X1742900Y3921300D02*
D03*
D18*
X2247900Y3416300D02*
D03*
D30*
X1786500Y1714500D02*
D03*
X1261500Y1079500D02*
D03*
Y1968500D02*
D03*
Y1841500D02*
D03*
Y1714500D02*
D03*
Y1587500D02*
D03*
Y1460500D02*
D03*
Y1333500D02*
D03*
Y1206500D02*
D03*
X1786500Y1968500D02*
D03*
Y1841500D02*
D03*
Y1587500D02*
D03*
Y1460500D02*
D03*
Y1333500D02*
D03*
Y1206500D02*
D03*
Y1079500D02*
D03*
D31*
X1943100Y1460500D02*
D03*
X1092200D02*
D03*
Y1841500D02*
D03*
X1409700Y1854200D02*
D03*
X1943100Y1206500D02*
D03*
X1092200D02*
D03*
X1524000Y1219200D02*
D03*
D32*
X1778000Y2463800D02*
D03*
X2120900Y1714500D02*
D03*
X1253338Y2469444D02*
D03*
%TF.MD5,5f35c2dc1abb7fede03e8cf1ffa124df*%
M02*
