%TF.GenerationSoftware,Altium Limited,Altium Designer,25.6.2 (33)*%
G04 Layer_Color=16711935*
%FSLAX45Y45*%
%MOMM*%
%TF.SameCoordinates,97575473-8274-49C9-A5CF-5B9BE0859C80*%
%TF.FilePolarity,Negative*%
%TF.FileFunction,Soldermask,Bot*%
%TF.Part,Single*%
G01*
G75*
%TA.AperFunction,ComponentPad*%
%ADD15C,1.57000*%
%ADD16R,1.57000X1.57000*%
%ADD17C,1.85000*%
%ADD18R,1.70000X1.70000*%
%TA.AperFunction,SMDPad,CuDef*%
%ADD22R,0.51535X0.47247*%
%ADD23R,0.52000X0.52000*%
%ADD25R,0.57247X0.56535*%
%TA.AperFunction,ViaPad*%
%ADD31C,0.70320*%
%ADD32C,1.47320*%
%TA.AperFunction,SMDPad,CuDef*%
%ADD33R,0.88320X0.84320*%
%ADD34R,0.96320X0.92320*%
D15*
X2463800Y609600D02*
D03*
X889000Y673100D02*
D03*
D16*
X2209800Y609600D02*
D03*
X635000Y673100D02*
D03*
D17*
X2752900Y3921300D02*
D03*
X1742900Y2911300D02*
D03*
X2752900D02*
D03*
X1742900Y3921300D02*
D03*
D18*
X2247900Y3416300D02*
D03*
D22*
X952256Y1460500D02*
D03*
X876544D02*
D03*
D23*
X2080900D02*
D03*
X2160900D02*
D03*
X885200Y1206500D02*
D03*
X965200D02*
D03*
D25*
X1524000Y1485900D02*
D03*
Y1576613D02*
D03*
D31*
X1943100Y1460500D02*
D03*
X1092200D02*
D03*
Y1841500D02*
D03*
X1409700Y1854200D02*
D03*
X1943100Y1206500D02*
D03*
X1092200D02*
D03*
X1524000Y1219200D02*
D03*
D32*
X1778000Y2463800D02*
D03*
X2120900Y1714500D02*
D03*
X1253338Y2469444D02*
D03*
D33*
X965200Y1841500D02*
D03*
X877200D02*
D03*
D34*
X2178800Y1206500D02*
D03*
X2082800D02*
D03*
%TF.MD5,ee208b6d5a1b1c8225ccf13da4858685*%
M02*
