%TF.GenerationSoftware,Altium Limited,Altium Designer,25.6.2 (33)*%
G04 Layer_Color=32896*
%FSLAX45Y45*%
%MOMM*%
%TF.SameCoordinates,97575473-8274-49C9-A5CF-5B9BE0859C80*%
%TF.FilePolarity,Positive*%
%TF.FileFunction,Legend,Bot*%
%TF.Part,Single*%
G01*
G75*
%TA.AperFunction,NonConductor*%
%ADD28C,0.20000*%
%ADD29C,0.25400*%
D28*
X850776Y1393000D02*
X978024D01*
X850776Y1528000D02*
X978024D01*
X2070900Y1397000D02*
X2170900D01*
X2070900Y1524000D02*
X2170900D01*
X872700Y1139000D02*
X977700D01*
X872567Y1274233D02*
X977567D01*
X1455376Y1457633D02*
Y1604880D01*
X1592624Y1457633D02*
Y1604880D01*
D29*
X584200Y1892283D02*
X609592Y1917675D01*
X660375D01*
X685767Y1892283D01*
Y1790717D01*
X660375Y1765325D01*
X609592D01*
X584200Y1790717D01*
X533416Y1765325D02*
X482633D01*
X508024D01*
Y1917675D01*
X533416Y1892283D01*
X596892Y1549383D02*
X622283Y1574775D01*
X673067D01*
X698459Y1549383D01*
Y1447817D01*
X673067Y1422425D01*
X622283D01*
X596892Y1447817D01*
X444541Y1422425D02*
X546108D01*
X444541Y1523992D01*
Y1549383D01*
X469933Y1574775D01*
X520716D01*
X546108Y1549383D01*
X2489192Y1511283D02*
X2514583Y1536675D01*
X2565367D01*
X2590759Y1511283D01*
Y1409717D01*
X2565367Y1384325D01*
X2514583D01*
X2489192Y1409717D01*
X2336841Y1536675D02*
X2438408D01*
Y1460500D01*
X2387625Y1485892D01*
X2362233D01*
X2336841Y1460500D01*
Y1409717D01*
X2362233Y1384325D01*
X2413016D01*
X2438408Y1409717D01*
X660392Y1244583D02*
X685783Y1269975D01*
X736567D01*
X761959Y1244583D01*
Y1143017D01*
X736567Y1117625D01*
X685783D01*
X660392Y1143017D01*
X609608Y1244583D02*
X584216Y1269975D01*
X533433D01*
X508041Y1244583D01*
Y1219192D01*
X533433Y1193800D01*
X558825D01*
X533433D01*
X508041Y1168408D01*
Y1143017D01*
X533433Y1117625D01*
X584216D01*
X609608Y1143017D01*
X2489192Y1244583D02*
X2514583Y1269975D01*
X2565367D01*
X2590759Y1244583D01*
Y1143017D01*
X2565367Y1117625D01*
X2514583D01*
X2489192Y1143017D01*
X2362233Y1117625D02*
Y1269975D01*
X2438408Y1193800D01*
X2336841D01*
X1577340Y1706880D02*
Y1859231D01*
X1501165D01*
X1475773Y1833839D01*
Y1783055D01*
X1501165Y1757663D01*
X1577340D01*
X1526557D02*
X1475773Y1706880D01*
X1424989D02*
X1374206D01*
X1399597D01*
Y1859231D01*
X1424989Y1833839D01*
%TF.MD5,18cf698e5edc946df65dcfdca708854b*%
M02*
