%TF.GenerationSoftware,Altium Limited,Altium Designer,25.6.2 (33)*%
G04 Layer_Physical_Order=1*
G04 Layer_Color=255*
%FSLAX45Y45*%
%MOMM*%
%TF.SameCoordinates,97575473-8274-49C9-A5CF-5B9BE0859C80*%
%TF.FilePolarity,Positive*%
%TF.FileFunction,Copper,L1,Top,Signal*%
%TF.Part,Single*%
G01*
G75*
%TA.AperFunction,SMDPad,CuDef*%
%ADD10R,0.67248X0.71535*%
%ADD11R,0.47247X0.53933*%
G04:AMPARAMS|DCode=12|XSize=0.55mm|YSize=1.25mm|CornerRadius=0.0495mm|HoleSize=0mm|Usage=FLASHONLY|Rotation=90.000|XOffset=0mm|YOffset=0mm|HoleType=Round|Shape=RoundedRectangle|*
%AMROUNDEDRECTD12*
21,1,0.55000,1.15100,0,0,90.0*
21,1,0.45100,1.25000,0,0,90.0*
1,1,0.09900,0.57550,0.22550*
1,1,0.09900,0.57550,-0.22550*
1,1,0.09900,-0.57550,-0.22550*
1,1,0.09900,-0.57550,0.22550*
%
%ADD12ROUNDEDRECTD12*%
%TA.AperFunction,Conductor*%
%ADD13C,0.30000*%
%ADD14C,0.25400*%
%TA.AperFunction,ComponentPad*%
%ADD15C,1.57000*%
%ADD16R,1.57000X1.57000*%
%ADD17C,1.85000*%
%ADD18R,1.70000X1.70000*%
%TA.AperFunction,ViaPad*%
%ADD19C,0.50000*%
%ADD20C,1.27000*%
D10*
X2247900Y2216613D02*
D03*
Y2120900D02*
D03*
D11*
X1257300Y2209800D02*
D03*
Y2283115D02*
D03*
X1778000Y2260600D02*
D03*
Y2187285D02*
D03*
D12*
X1786500Y1714500D02*
D03*
X1261500Y1079500D02*
D03*
Y1968500D02*
D03*
Y1841500D02*
D03*
Y1714500D02*
D03*
Y1587500D02*
D03*
Y1460500D02*
D03*
Y1333500D02*
D03*
Y1206500D02*
D03*
X1786500Y1968500D02*
D03*
Y1841500D02*
D03*
Y1587500D02*
D03*
Y1460500D02*
D03*
Y1333500D02*
D03*
Y1206500D02*
D03*
Y1079500D02*
D03*
D13*
X635000Y673100D02*
Y1193800D01*
X774700Y1333500D01*
X1261500D01*
X1778000Y2260600D02*
Y2463800D01*
X1255319Y2285096D02*
X1257300Y2283115D01*
X1786500Y1714500D02*
X2120900D01*
X1253338Y2469444D02*
X1255319Y2467463D01*
Y2285096D02*
Y2467463D01*
X1218950Y1067000D02*
X1231450Y1079500D01*
X1261500D01*
X889000Y673100D02*
X1218950Y1003050D01*
Y1067000D01*
X1778000Y1977000D02*
Y2187285D01*
Y1977000D02*
X1786500Y1968500D01*
X774700Y1333500D02*
X1028700Y1587500D01*
X1226500Y1714500D02*
X1244000D01*
X1099500Y1587500D02*
X1226500Y1714500D01*
X1028700Y1587500D02*
X1099500D01*
X1261500D01*
X1751500Y1968500D02*
X1786500D01*
X1497500Y1714500D02*
X1751500Y1968500D01*
X1261500Y1714500D02*
X1497500D01*
X1261500Y1587500D02*
X1786500D01*
X1261500Y1333500D02*
X1786500D01*
D14*
X2247900Y2216613D02*
Y3416300D01*
X1092200Y1841500D02*
X1261500D01*
X1409700Y1854200D02*
Y1855300D01*
X1296500Y1968500D02*
X1409700Y1855300D01*
X2247900Y2118756D02*
Y2120900D01*
X1970644Y1841500D02*
X2247900Y2118756D01*
X1786500Y1841500D02*
X1970644D01*
X1092200Y1206500D02*
X1261500D01*
X1092200Y1460500D02*
X1261500D01*
X1786500D02*
X1943100D01*
X1257300Y1972700D02*
Y2209800D01*
Y1972700D02*
X1261500Y1968500D01*
X1296500D01*
X1786500Y1206500D02*
X1943100D01*
X1786500Y1079500D02*
X1816550D01*
X1831350Y988050D02*
Y1064700D01*
Y988050D02*
X2209800Y609600D01*
X1816550Y1079500D02*
X1831350Y1064700D01*
X1663700Y1079500D02*
X1786500D01*
X1524000Y1219200D02*
X1663700Y1079500D01*
D15*
X2463800Y609600D02*
D03*
X889000Y673100D02*
D03*
D16*
X2209800Y609600D02*
D03*
X635000Y673100D02*
D03*
D17*
X2752900Y3921300D02*
D03*
X1742900Y2911300D02*
D03*
X2752900D02*
D03*
X1742900Y3921300D02*
D03*
D18*
X2247900Y3416300D02*
D03*
D19*
X1943100Y1460500D02*
D03*
X1092200D02*
D03*
Y1841500D02*
D03*
X1409700Y1854200D02*
D03*
X1943100Y1206500D02*
D03*
X1092200D02*
D03*
X1524000Y1219200D02*
D03*
D20*
X1778000Y2463800D02*
D03*
X2120900Y1714500D02*
D03*
X1253338Y2469444D02*
D03*
%TF.MD5,617f28d19a1a6f3bd571361451dbcf2b*%
M02*
